<?xml version="1.0" encoding="UTF-8" standalone="no"?>
<!-- Created with Inkscape (http://www.inkscape.org/) -->

<svg
   width="29.99971mm"
   height="30.000244mm"
   viewBox="0 0 29.99971 30.000244"
   version="1.1"
   id="svg5"
   xml:space="preserve"
   xmlns="http://www.w3.org/2000/svg"
   xmlns:svg="http://www.w3.org/2000/svg"><defs
     id="defs2" /><g
     id="layer2"
     transform="translate(-19.98172,-128.55517)"><g
       id="g48700"
       transform="translate(-336.65388,-217.8738)"
       style="fill:#e990e3;fill-opacity:1"><path
         id="path4635-5-9-2-7"
         style="opacity:1;fill:#e990e3;fill-opacity:1;stroke-width:0.283868"
         d="m 371.63571,346.42898 a 15,15 0 0 0 -15.00011,15.00012 15,15 0 0 0 15.00011,15.00012 15,15 0 0 0 14.9996,-15.00012 15,15 0 0 0 -14.9996,-15.00012 z m 0,3.73673 2.95951,5.41155 4.09071,-1.19837 -1.19838,4.0907 5.41156,2.95951 -5.41156,2.95951 1.19838,4.09071 -4.09071,-1.19838 -2.95951,5.41207 -2.95951,-5.41207 -4.0907,1.19838 1.19837,-4.09071 -5.41207,-2.95951 5.41207,-2.95951 -1.19837,-4.0907 4.0907,1.19837 z" /><path
         style="opacity:1;fill:#e990e3;fill-opacity:1;stroke:none;stroke-width:0.264999;stroke-dasharray:none"
         id="path48695"
         d="m 368.12598,362.07027 -1.41484,-2.58692 -2.58692,-1.41484 2.58692,-1.41483 1.41484,-2.58693 1.41483,2.58693 2.58693,1.41483 -2.58693,1.41484 z"
         transform="translate(3.5094784,3.360588)" /></g></g></svg>
