<?xml version="1.0" encoding="UTF-8" standalone="no"?>
<!-- Created with Inkscape (http://www.inkscape.org/) -->

<svg
   width="29.99972mm"
   height="29.999725mm"
   viewBox="0 0 29.99972 29.999725"
   version="1.1"
   id="svg5"
   xml:space="preserve"
   xmlns="http://www.w3.org/2000/svg"
   xmlns:svg="http://www.w3.org/2000/svg"><defs
     id="defs2" /><g
     id="layer2"
     transform="translate(-24.544249,-169.9203)"><path
       id="path4635-5"
       style="opacity:1;fill:#fb9e53;fill-opacity:1;stroke-width:0.283868"
       d="m 39.543848,169.9203 a 15,15 0 0 0 -14.9996,14.9996 15,15 0 0 0 14.9996,15.00012 15,15 0 0 0 15.00012,-15.00012 15,15 0 0 0 -15.00012,-14.9996 z m 0.0687,4.21008 c 0.80843,0.67495 1.80053,1.44453 2.32751,2.14922 0.53222,0.71183 0.61901,1.52109 -0.0326,2.07998 -0.64611,0.5154 -1.61987,0.59255 -2.02365,1.41852 -1.07069,1.46151 -0.14426,3.73838 1.60869,4.10362 1.84989,0.59961 3.71213,-1.32418 3.3321,-3.15432 -0.0814,-0.63404 -0.74731,-1.19477 -0.35709,-1.83968 1.97355,2.28921 3.77575,5.01716 3.68815,7.27707 -0.12288,3.17179 -3.61677,4.93071 -6.36447,5.28857 0.54657,-0.56859 0.85226,-1.32643 0.85318,-2.11512 -3e-5,-1.68841 -1.36876,-3.05714 -3.05718,-3.05718 -1.68862,-2.5e-4 -3.05766,1.36857 -3.05769,3.05718 0.001,1.60096 1.2434,2.86433 2.83393,3.04684 2.79445,0.32067 5.3712,-0.17564 8.0977,-1.73013 -1.36691,2.98271 -4.37823,5.055 -7.87394,5.05499 -4.7813,1e-5 -8.65787,-3.87601 -8.65787,-8.65735 0,-1.54025 0.60706,-3.18789 1.74718,-4.81262 -0.0524,1.27135 0.0985,2.92456 1.09038,4.0628 -0.47508,-1.66946 -1.35103,-4.11427 0.65163,-6.11694 2.16762,-2.16762 4.74106,-2.72181 5.194,-6.05545 z" /></g></svg>
