<?xml version="1.0" encoding="UTF-8" standalone="no"?>
<!-- Created with Inkscape (http://www.inkscape.org/) -->

<svg
   width="29.999725mm"
   height="29.99971mm"
   viewBox="0 0 29.999725 29.99971"
   version="1.1"
   id="svg5"
   xml:space="preserve"
   xmlns="http://www.w3.org/2000/svg"
   xmlns:svg="http://www.w3.org/2000/svg"><defs
     id="defs2" /><g
     id="layer2"
     transform="translate(-60.202524,-129.46188)"><path
       id="path4635-5-80"
       style="opacity:1;fill:#66bb5e;fill-opacity:1;stroke-width:0.283868"
       d="m 75.202133,129.46187 a 15,15 0 0 0 -14.99961,14.9996 15,15 0 0 0 14.99961,15.00012 15,15 0 0 0 15.00011,-15.00012 15,15 0 0 0 -15.00011,-14.9996 z m 7.95662,6.03116 c 0,0 1.99733,12.21304 -1.32395,16.18144 -3.00449,3.58987 -8.12721,4.36101 -12.01477,2.01693 0.48317,-0.62049 1.04882,-1.34814 1.71565,-2.2133 3.58028,-0.63649 8.22252,-1.52287 8.18142,-1.83813 -10e-4,-0.0112 -0.008,-0.021 -0.0186,-0.031 -0.28328,-0.25011 -3.70859,-0.0376 -6.89673,0.21963 0.95816,-1.25346 1.97566,-2.59696 2.95279,-3.91139 2.66119,-0.63095 5.04539,-1.26025 5.00589,-1.4857 -0.002,-0.0121 -0.01,-0.022 -0.0227,-0.032 -0.21479,-0.16189 -1.92039,-0.0372 -4.00079,0.18604 2.23679,-3.05461 3.99043,-5.63185 3.71708,-5.86063 -0.25263,-0.21142 -2.48642,1.98451 -5.11028,4.73253 -0.14966,-2.13794 -0.3322,-3.88047 -0.53434,-4.01939 -0.009,-0.006 -0.0174,-0.009 -0.0264,-0.009 -0.23017,8.1e-4 -0.43082,2.48553 -0.58343,5.23431 -1.11995,1.18858 -2.2612,2.41968 -3.32486,3.57652 -0.30681,-3.16839 -0.69967,-6.56967 -0.9958,-6.84868 -0.0135,-0.0134 -0.0264,-0.0186 -0.0398,-0.0181 -0.31814,0.0151 -0.37194,4.75936 -0.36794,8.39845 -0.73241,0.80259 -1.34769,1.48126 -1.87275,2.06189 -2.99625,-3.41381 -3.14076,-8.59481 -0.13488,-12.18633 3.32129,-3.9684 15.69517,-4.15427 15.69517,-4.15427 z" /></g></svg>
