<?xml version="1.0" encoding="UTF-8" standalone="no"?>
<!-- Created with Inkscape (http://www.inkscape.org/) -->

<svg
   width="30.000235mm"
   height="29.999722mm"
   viewBox="0 0 30.000235 29.999722"
   version="1.1"
   id="svg5"
   xml:space="preserve"
   xmlns="http://www.w3.org/2000/svg"
   xmlns:svg="http://www.w3.org/2000/svg"><defs
     id="defs2" /><g
     id="layer2"
     transform="translate(-20.277911,-14.26089)"><g
       id="g4863"
       transform="translate(-237.0361,-5.9430458)"
       style="fill:#9199a1;fill-opacity:1"><path
         id="path4635"
         style="opacity:1;fill:#9199a1;fill-opacity:1;stroke-width:0.283868"
         d="m 272.31413,20.203935 a 15,15 0 0 0 -15.00012,14.999601 15,15 0 0 0 15.00012,15.000118 15,15 0 0 0 15.00012,-15.000118 15,15 0 0 0 -15.00012,-14.999601 z m 0,5.584672 a 9.4149208,9.4149208 0 0 1 9.41493,9.414929 9.4149208,9.4149208 0 0 1 -9.41493,9.414929 9.4149208,9.4149208 0 0 1 -9.41493,-9.414929 9.4149208,9.4149208 0 0 1 9.41493,-9.414929 z" /><circle
         style="opacity:1;fill:#9199a1;fill-opacity:1;stroke-width:0.283042"
         id="path4857"
         cx="272.31412"
         cy="35.203796"
         r="5.5762191" /></g></g></svg>
