<?xml version="1.0" encoding="UTF-8" standalone="no"?>
<!-- Created with Inkscape (http://www.inkscape.org/) -->

<svg
   width="29.999722mm"
   height="29.999725mm"
   viewBox="0 0 29.999722 29.999725"
   version="1.1"
   id="svg5"
   xml:space="preserve"
   xmlns="http://www.w3.org/2000/svg"
   xmlns:svg="http://www.w3.org/2000/svg"><defs
     id="defs2" /><g
     id="layer2"
     transform="translate(-22.174939,-90.059339)"><path
       id="path4635-41"
       style="opacity:1;fill:#c8b68d;fill-opacity:1;stroke-width:0.283868"
       d="m 37.174538,90.059339 a 15,15 0 0 0 -14.9996,15.000121 15,15 0 0 0 14.9996,14.9996 15,15 0 0 0 15.00012,-14.9996 15,15 0 0 0 -15.00012,-15.000121 z m -3.42408,7.6383 h 10.09809 l -3.85661,7.888401 -8.215,6.39445 -4.08399,-1.19631 -0.68575,-5.88595 z m 11.08459,0.32452 2.63033,7.561821 -3.46335,4.07158 -2.85512,-4.08812 z m -4.30929,8.452721 2.78691,3.99045 -3.33313,3.91863 -6.98666,-2.04691 z" /></g></svg>
