<svg xmlns="http://www.w3.org/2000/svg" viewBox="0 0 16 16"><g id="ダウンロード (1)" fill-rule="evenodd"><path fill="#141414" fill-opacity="1" class="c0" d="M7,0h2v1h6v2h-1v1h-1v1h1v2h-1v1h1v1h1v1h1v1h-1v1h-2v1h1v2h-1v1h-3v-1h-4v1h-3v-1h-1v-2h1v-1h-2v-1h-1v-1h1v-1h1v-1h1v-1h-1v-2h1v-1h-1v-1h-1v-2h6zM2,3h1v1h1v1h-1v2h3v1h4v-1h3v-2h-1v-1h1v-1h1v-1h-2v1h-1v-1h-1v1h-1v-2h-2v2h-1v-1h-1v1h-1v-1h-2zM5,4h1v1h1v1h-2zM10,4h1v2h-2v-1h1zM3,9h1v-1h-1v1h-1v1h-1v1h2zM5,9h1v-1h-1v1h-1v3h1v1h1v1h4v-1h1v-1h1v-3h-1v1h-1v1h-4v-1h-1zM10,9h1v-1h-1v1h-4v1h4zM12,9h1v-1h-1zM13,11h2v-1h-1v-1h-1zM3,15h3v-1h-2v-1h-1zM10,15h3v-2h-1v1h-2z" /><path fill="#eeb088" fill-opacity="1" class="c1" d="M5,2h1v1h4v-1h1v1h1v2h1v2h-3v1h-1v-1h-2v1h-1v-1h-3v-2h1v-2h1zM5,6h6v-2h-1v1h-4v-1h-1zM2,9h1v2h-2v-1h1zM4,9h1v1h1v1h-1v1h-1zM11,9h1v3h-1v-1h-1v-1h1zM13,9h1v1h1v1h-2zM3,13h1v1h1v1h-1v-1h-1zM12,13h1v1h-1v1h-1v-1h1z" /><path fill="#f5f5f5" fill-opacity="1" class="c2" d="M7,1h2v2h-2zM2,2h2v2h-1v-1h-1zM12,2h2v1h-1v1h-1zM7,5h2v1h-2zM7,7h2v1h-2zM3,8h1v1h-1zM5,8h1v1h4v-1h1v1h-1v1h-4v-1h-1zM12,8h1v1h-1zM5,11h6v2h-1v1h1v1h-1v-1h-4v1h-1v-1h1v-1h-1zM3,14h1v1h-1zM12,14h1v1h-1z" /></g></svg>