<?xml version="1.0" encoding="UTF-8" standalone="no"?>
<!-- Created with Inkscape (http://www.inkscape.org/) -->

<svg
   width="30.000229mm"
   height="29.99971mm"
   viewBox="0 0 30.000229 29.99971"
   version="1.1"
   id="svg5"
   xml:space="preserve"
   xmlns="http://www.w3.org/2000/svg"
   xmlns:svg="http://www.w3.org/2000/svg"><defs
     id="defs2" /><g
     id="layer2"
     transform="translate(-148.39443,-91.468496)"><path
       id="path4635-5-9-8"
       style="opacity:1;fill:#8fc02b;fill-opacity:1;stroke-width:0.283868"
       d="m 163.39454,91.468497 a 15,15 0 0 0 -15.00011,15.000113 15,15 0 0 0 15.00011,14.9996 15,15 0 0 0 15.00012,-14.9996 15,15 0 0 0 -15.00012,-15.000113 z m -3.45043,4.704623 2.48615,2.867008 a 9.4860153,9.4860153 0 0 1 0.96273,-0.05064 9.4860153,9.4860153 0 0 1 0.96635,0.04961 l 2.48564,-2.865975 1.16582,1.010791 -1.91151,2.203483 a 9.4860153,9.4860153 0 0 1 3.19877,1.666043 8.4288387,8.4288387 0 0 1 -0.17208,0.17209 8.4288387,8.4288387 0 0 1 -0.47749,0.41082 8.4288387,8.4288387 0 0 1 -0.50746,0.37466 8.4288387,8.4288387 0 0 1 -0.53382,0.33538 8.4288387,8.4288387 0 0 1 -0.55707,0.29456 8.4288387,8.4288387 0 0 1 -0.57775,0.25166 8.4288387,8.4288387 0 0 1 -0.59479,0.20826 8.4288387,8.4288387 0 0 1 -0.60927,0.16329 8.4288387,8.4288387 0 0 1 -0.61908,0.11731 8.4288387,8.4288387 0 0 1 -0.62632,0.0703 8.4288387,8.4288387 0 0 1 -0.62994,0.0238 8.4288387,8.4288387 0 0 1 -0.62993,-0.0238 8.4288387,8.4288387 0 0 1 -0.62632,-0.0703 8.4288387,8.4288387 0 0 1 -0.61908,-0.11731 8.4288387,8.4288387 0 0 1 -0.60927,-0.16329 8.4288387,8.4288387 0 0 1 -0.59479,-0.20826 8.4288387,8.4288387 0 0 1 -0.57775,-0.25166 8.4288387,8.4288387 0 0 1 -0.55707,-0.29456 8.4288387,8.4288387 0 0 1 -0.53382,-0.33538 8.4288387,8.4288387 0 0 1 -0.50746,-0.37466 8.4288387,8.4288387 0 0 1 -0.47749,-0.41082 8.4288387,8.4288387 0 0 1 -0.16898,-0.16898 9.4860153,9.4860153 0 0 1 3.1998,-1.66812 l -1.91254,-2.204515 z m 10.14563,5.58415 a 9.4860153,9.4860153 0 0 1 2.79105,6.71846 9.4860153,9.4860153 0 0 1 -4.87981,8.28631 6.1144795,8.4859829 0 0 1 -0.2005,-0.0925 6.1144795,8.4859829 0 0 1 -0.40308,-0.23203 6.1144795,8.4859829 0 0 1 -0.39016,-0.2713 6.1144795,8.4859829 0 0 1 -0.37568,-0.30903 6.1144795,8.4859829 0 0 1 -0.35812,-0.34519 6.1144795,8.4859829 0 0 1 -0.34003,-0.38034 6.1144795,8.4859829 0 0 1 -0.31936,-0.4129 6.1144795,8.4859829 0 0 1 -0.29766,-0.44286 6.1144795,8.4859829 0 0 1 -0.27388,-0.47181 6.1144795,8.4859829 0 0 1 -0.24908,-0.49764 6.1144795,8.4859829 0 0 1 -0.22273,-0.5209 6.1144795,8.4859829 0 0 1 -0.19534,-0.54209 6.1144795,8.4859829 0 0 1 -0.16691,-0.55965 6.1144795,8.4859829 0 0 1 -0.13798,-0.57465 6.1144795,8.4859829 0 0 1 -0.10748,-0.58704 6.1144795,8.4859829 0 0 1 -0.0775,-0.59583 6.1144795,8.4859829 0 0 1 -0.047,-0.60254 6.1144795,8.4859829 0 0 1 -0.0155,-0.60513 6.1144795,8.4859829 0 0 1 0.0155,-0.60565 6.1144795,8.4859829 0 0 1 0.047,-0.60203 6.1144795,8.4859829 0 0 1 0.0775,-0.59635 6.1144795,8.4859829 0 0 1 0.10748,-0.58704 6.1144795,8.4859829 0 0 1 0.13798,-0.57464 6.1144795,8.4859829 0 0 1 0.16691,-0.55966 6.1144795,8.4859829 0 0 1 0.19534,-0.54157 6.1144795,8.4859829 0 0 1 0.0879,-0.20515 9.4860153,9.4860153 0 0 0 0.14986,-0.0196 9.4860153,9.4860153 0 0 0 0.69712,-0.1323 9.4860153,9.4860153 0 0 0 0.68523,-0.18345 9.4860153,9.4860153 0 0 0 0.66921,-0.23409 9.4860153,9.4860153 0 0 0 0.6506,-0.2837 9.4860153,9.4860153 0 0 0 0.62684,-0.33177 9.4860153,9.4860153 0 0 0 0.60099,-0.37724 9.4860153,9.4860153 0 0 0 0.57051,-0.42116 9.4860153,9.4860153 0 0 0 0.53795,-0.46302 9.4860153,9.4860153 0 0 0 0.24288,-0.24288 z m -13.38678,0.004 a 9.4860153,9.4860153 0 0 0 0.23927,0.23927 9.4860153,9.4860153 0 0 0 0.53795,0.46302 9.4860153,9.4860153 0 0 0 0.57051,0.42116 9.4860153,9.4860153 0 0 0 0.60099,0.37724 9.4860153,9.4860153 0 0 0 0.62684,0.33176 9.4860153,9.4860153 0 0 0 0.6506,0.28371 9.4860153,9.4860153 0 0 0 0.66921,0.23409 9.4860153,9.4860153 0 0 0 0.68523,0.18345 9.4860153,9.4860153 0 0 0 0.69712,0.13229 9.4860153,9.4860153 0 0 0 0.15348,0.0202 6.1144795,8.4859829 0 0 1 0.0124,0.0284 6.1144795,8.4859829 0 0 1 0.0786,0.19379 6.1144795,8.4859829 0 0 1 0.0744,0.19689 6.1144795,8.4859829 0 0 1 0.0708,0.19895 6.1144795,8.4859829 0 0 1 0.0667,0.20206 6.1144795,8.4859829 0 0 1 0.0636,0.20412 6.1144795,8.4859829 0 0 1 0.0594,0.20619 6.1144795,8.4859829 0 0 1 0.0553,0.20825 6.1144795,8.4859829 0 0 1 0.0512,0.21033 6.1144795,8.4859829 0 0 1 0.0476,0.21239 6.1144795,8.4859829 0 0 1 0.0434,0.21394 6.1144795,8.4859829 0 0 1 0.0398,0.21497 6.1144795,8.4859829 0 0 1 0.0351,0.21704 6.1144795,8.4859829 0 0 1 0.031,0.21756 6.1144795,8.4859829 0 0 1 0.0274,0.21911 6.1144795,8.4859829 0 0 1 0.0227,0.21962 6.1144795,8.4859829 0 0 1 0.0191,0.22066 6.1144795,8.4859829 0 0 1 0.0145,0.22117 6.1144795,8.4859829 0 0 1 0.0103,0.2217 6.1144795,8.4859829 0 0 1 0.006,0.22221 6.1144795,8.4859829 0 0 1 0.002,0.2222 6.1144795,8.4859829 0 0 1 -0.0186,0.6656 6.1144795,8.4859829 0 0 1 -0.0563,0.66197 6.1144795,8.4859829 0 0 1 -0.0935,0.65319 6.1144795,8.4859829 0 0 1 -0.13075,0.6413 6.1144795,8.4859829 0 0 1 -0.16588,0.62529 6.1144795,8.4859829 0 0 1 -0.20102,0.60513 6.1144795,8.4859829 0 0 1 -0.23461,0.58136 6.1144795,8.4859829 0 0 1 -0.26665,0.55397 6.1144795,8.4859829 0 0 1 -0.29714,0.52348 6.1144795,8.4859829 0 0 1 -0.32608,0.48886 6.1144795,8.4859829 0 0 1 -0.35243,0.45269 6.1144795,8.4859829 0 0 1 -0.37724,0.41238 6.1144795,8.4859829 0 0 1 -0.39894,0.37 6.1144795,8.4859829 0 0 1 -0.4191,0.32556 6.1144795,8.4859829 0 0 1 -0.43615,0.27905 6.1144795,8.4859829 0 0 1 -0.40049,0.20516 9.4860153,9.4860153 0 0 1 -4.88239,-8.28787 9.4860153,9.4860153 0 0 1 2.79466,-6.71483 z" /></g></svg>
