<?xml version="1.0" encoding="UTF-8" standalone="no"?>
<!-- Created with Inkscape (http://www.inkscape.org/) -->

<svg
   width="30.000244mm"
   height="29.999725mm"
   viewBox="0 0 30.000244 29.999725"
   version="1.1"
   id="svg5"
   xml:space="preserve"
   xmlns="http://www.w3.org/2000/svg"
   xmlns:svg="http://www.w3.org/2000/svg"><defs
     id="defs2" /><g
     id="layer2"
     transform="translate(-148.43363,-52.08795)"><g
       id="g39019"
       transform="translate(-110.63208,-294.40935)"
       style="fill:#595365;fill-opacity:1"><path
         id="path4635-41-9"
         style="opacity:1;fill:#595365;fill-opacity:1;stroke-width:0.283868"
         d="m 274.06583,346.4973 a 15,15 0 0 0 -15.00012,15.00011 15,15 0 0 0 15.00012,14.99961 15,15 0 0 0 15.00012,-14.99961 15,15 0 0 0 -15.00012,-15.00011 z m 0,5.42861 a 9.5712566,9.5712566 0 0 1 9.57099,9.5715 9.5712566,9.5712566 0 0 1 -9.57099,9.571 9.5712566,9.5712566 0 0 1 -9.57151,-9.571 9.5712566,9.5712566 0 0 1 9.57151,-9.5715 z" /><path
         id="path38936"
         style="opacity:1;fill:#595365;fill-opacity:1;stroke:none;stroke-width:0.246848;stroke-dasharray:none"
         d="m 274.06596,353.7257 a 7.7716756,7.7716756 0 0 0 -2.45101,0.401 7.7716756,7.7716756 0 0 1 5.3082,7.37061 7.7716756,7.7716756 0 0 1 -5.31441,7.36803 7.7716756,7.7716756 0 0 0 2.45722,0.40359 7.7716756,7.7716756 0 0 0 7.77162,-7.77162 7.7716756,7.7716756 0 0 0 -7.77162,-7.77161 z" /></g></g></svg>
