<?xml version="1.0" encoding="UTF-8" standalone="no"?>
<!-- Created with Inkscape (http://www.inkscape.org/) -->

<svg
   width="30.000229mm"
   height="30.000244mm"
   viewBox="0 0 30.000229 30.000244"
   version="1.1"
   id="svg5"
   xml:space="preserve"
   xmlns="http://www.w3.org/2000/svg"
   xmlns:svg="http://www.w3.org/2000/svg"><defs
     id="defs2" /><g
     id="layer2"
     transform="translate(-103.95923,-130.46647)"><g
       id="g55305"
       style="fill:#0a6cbf;fill-opacity:1"
       transform="translate(-298.53962,-81.169186)"><path
         id="path4635-5-9-2"
         style="opacity:1;fill:#0a6cbf;fill-opacity:1;stroke-width:0.283868"
         d="m 417.49897,211.63565 a 15,15 0 0 0 -15.00012,15.00012 15,15 0 0 0 15.00012,15.00012 15,15 0 0 0 15.00011,-15.00012 15,15 0 0 0 -15.00011,-15.00012 z m 0.61856,2.90215 c 0.25643,1.08276 0.82315,1.9782 -0.15399,3.59565 4.68751,0.38219 8.29707,4.29792 8.29716,9.001 -4e-5,4.98785 -3.49895,8.08814 -5.8601,8.14524 -4.69328,-0.0117 -4.81005,-3.91552 -4.81005,-3.91552 0,0 1.00923,0.15451 1.69964,0.15451 2.21235,0 3.81174,-1.65335 3.87884,-3.9424 0,-2.83753 -2.14313,-3.32123 -2.74661,-4.91184 -0.47568,2.1595 -3.27784,2.44946 -3.98993,2.44946 -4.60213,0 -6.07664,1.39423 -6.07664,1.39423 0,-3.55666 2.60663,-6.45416 5.18108,-7.60884 1.35876,-0.68047 2.7153,-1.44825 4.5806,-4.36149 z m -3.34398,12.42663 c 0.0484,-4.1e-4 0.0964,-5e-4 0.14314,0 0.0468,0.001 0.0926,0.002 0.13746,0.003 0.0449,0.001 0.0888,0.004 0.13178,0.006 0.043,0.002 0.0847,0.005 0.12557,0.008 0.0409,0.003 0.0811,0.007 0.11989,0.0114 -0.035,0.0695 -0.0689,0.13904 -0.1018,0.20774 -0.0329,0.0687 -0.0648,0.13673 -0.0956,0.20463 -0.0308,0.0679 -0.0602,0.13548 -0.0889,0.20258 -0.0287,0.0671 -0.0565,0.1342 -0.0832,0.2005 -0.0267,0.0663 -0.0523,0.1318 -0.077,0.1974 -0.0247,0.0656 -0.0481,0.13106 -0.0708,0.19586 -0.0227,0.0648 -0.0448,0.12917 -0.0656,0.19327 -0.0208,0.064 -0.0404,0.12738 -0.0594,0.19068 -0.019,0.0633 -0.0371,0.12654 -0.0543,0.18914 -0.0172,0.0626 -0.0332,0.12465 -0.0486,0.18655 -0.0154,0.0619 -0.0303,0.12329 -0.0439,0.18449 -0.0136,0.0612 -0.0262,0.12191 -0.0382,0.18241 -0.012,0.0605 -0.0233,0.12056 -0.0336,0.18036 -0.0103,0.0598 -0.0194,0.1197 -0.0284,0.1788 -0.009,0.0591 -0.0168,0.11781 -0.0238,0.17621 -0.007,0.0585 -0.0131,0.11635 -0.0191,0.17415 -0.006,0.0578 -0.0105,0.1154 -0.0145,0.1726 -0.004,0.0572 -0.007,0.11403 -0.0103,0.17053 -0.003,0.0565 -0.005,0.11309 -0.006,0.16899 -10e-4,0.0559 -0.002,0.11161 -0.002,0.16691 0,0.0553 0.001,0.11015 0.002,0.16485 0.002,0.0547 0.003,0.1091 0.006,0.1633 0.003,0.0542 0.006,0.10814 0.01,0.16174 0.003,0.0536 0.008,0.10668 0.0134,0.15968 0.005,0.053 0.0105,0.10615 0.0165,0.15865 0.006,0.0525 0.0132,0.10458 0.0202,0.15658 0.007,0.052 0.0153,0.10363 0.0233,0.15503 0.008,0.0514 0.0174,0.10258 0.0264,0.15348 0.009,0.0509 0.0192,0.10153 0.0294,0.15193 0.0103,0.0504 0.0214,0.10099 0.0326,0.15089 0.0112,0.0499 0.0225,0.0993 0.0346,0.14883 0.0121,0.0495 0.0248,0.0988 0.0377,0.14779 0.0129,0.0489 0.0261,0.0977 0.0398,0.14625 0.0137,0.0485 0.0279,0.0966 0.0424,0.14469 0.0144,0.0481 0.0292,0.096 0.0444,0.14366 0.0152,0.0476 0.0306,0.0954 0.0465,0.14263 0.0159,0.0473 0.0321,0.0943 0.0486,0.14108 0.0165,0.0468 0.0335,0.0936 0.0506,0.14004 0.0341,0.0929 0.0692,0.18465 0.10542,0.27595 0.0362,0.0913 0.0736,0.18192 0.11162,0.27182 0.038,0.0899 0.0769,0.17908 0.11627,0.26768 0.0394,0.0886 0.0794,0.17677 0.11989,0.26407 0.0405,0.0873 0.0813,0.17373 0.12248,0.25993 0.0787,0.16322 0.16188,0.33602 0.24908,0.51057 0.0833,0.16823 0.16654,0.33484 0.24804,0.49971 0.0446,0.0905 0.0998,0.20117 0.14832,0.30334 -3.2532,-0.45081 -6.48688,-3.51365 -7.89513,-7.51582 0.004,-0.003 0.008,-0.005 0.0119,-0.007 0.0458,-0.0258 0.0924,-0.0516 0.14004,-0.077 0.0476,-0.0253 0.0964,-0.0505 0.14573,-0.0754 0.0493,-0.0249 0.0995,-0.0495 0.15037,-0.0739 0.0509,-0.0243 0.10263,-0.0485 0.15503,-0.0724 0.0524,-0.0239 0.10527,-0.0474 0.15917,-0.0708 0.0538,-0.0234 0.10861,-0.0463 0.16381,-0.0693 0.0552,-0.0229 0.11103,-0.0454 0.16743,-0.0677 0.0564,-0.0223 0.11304,-0.0443 0.17054,-0.0661 0.0575,-0.0218 0.11564,-0.0434 0.17414,-0.0646 0.0585,-0.0213 0.11724,-0.0424 0.17674,-0.063 0.0595,-0.0206 0.11953,-0.041 0.17983,-0.061 0.0603,-0.02 0.1209,-0.0395 0.1819,-0.0589 0.061,-0.0195 0.12279,-0.0386 0.18449,-0.0574 0.0617,-0.0188 0.12332,-0.0376 0.18552,-0.0558 0.0622,-0.0182 0.12488,-0.0361 0.18758,-0.0537 0.0627,-0.0176 0.12562,-0.0348 0.18862,-0.0517 0.063,-0.0169 0.12635,-0.0334 0.18965,-0.0496 0.0633,-0.0162 0.12667,-0.0319 0.19017,-0.0476 0.0635,-0.0156 0.12667,-0.0311 0.19017,-0.046 0.0635,-0.0149 0.12719,-0.0292 0.19069,-0.0434 0.0635,-0.0142 0.12728,-0.0278 0.19068,-0.0413 0.0634,-0.0135 0.12646,-0.027 0.18966,-0.0398 0.0632,-0.0128 0.12623,-0.0252 0.18913,-0.0372 0.0629,-0.012 0.1256,-0.0233 0.1881,-0.0346 0.0625,-0.0113 0.12456,-0.022 0.18656,-0.0325 0.062,-0.0105 0.1236,-0.0205 0.185,-0.0305 0.0614,-0.01 0.12275,-0.0189 0.18345,-0.0279 0.0607,-0.009 0.12097,-0.0178 0.18087,-0.0258 0.0599,-0.008 0.11928,-0.0163 0.17828,-0.0233 0.059,-0.007 0.11718,-0.0137 0.17518,-0.0207 0.058,-0.006 0.1157,-0.0126 0.1726,-0.0186 0.0569,-0.006 0.11319,-0.0105 0.16899,-0.0155 0.0558,-0.004 0.11086,-0.009 0.16536,-0.0134 0.0545,-0.004 0.10855,-0.008 0.16175,-0.0109 0.0531,-0.003 0.10539,-0.006 0.15709,-0.008 0.0517,-0.002 0.10287,-0.004 0.15297,-0.005 0.0501,-0.002 0.0993,-0.003 0.14779,-0.003 z" /><path
         style="opacity:1;fill:#0a6cbf;fill-opacity:1;stroke:none;stroke-width:10;stroke-linecap:round;stroke-linejoin:round;stroke-dasharray:none;stroke-opacity:1;paint-order:markers fill stroke"
         d="m 411.38871,223.70972 c 0,0 2.54292,-3.25725 2.54292,-2.88581 0,0.48573 -0.0832,1.55631 -0.55715,2.12864 -0.47397,0.57234 -1.98577,0.75717 -1.98577,0.75717 z"
         id="path55274" /></g></g></svg>
