<?xml version="1.0" encoding="UTF-8" standalone="no"?>
<!-- Created with Inkscape (http://www.inkscape.org/) -->

<svg
   width="30.000244mm"
   height="30.000244mm"
   viewBox="0 0 30.000244 30.000244"
   version="1.1"
   id="svg5"
   xml:space="preserve"
   xmlns="http://www.w3.org/2000/svg"
   xmlns:svg="http://www.w3.org/2000/svg"><defs
     id="defs2" /><g
     id="layer2"
     transform="translate(-78.745005,-173.45993)"><path
       id="path4635-5-8"
       style="opacity:1;fill:#8ba8dc;fill-opacity:1;stroke-width:0.283868"
       d="m 93.74513,173.45992 a 15,15 0 0 0 -15.00012,15.00012 15,15 0 0 0 15.00012,15.00012 15,15 0 0 0 15.00012,-15.00012 15,15 0 0 0 -15.00012,-15.00012 z m 10.39471,6.43837 a 6.5,6.5 0 0 1 0.10232,1.14463 6.5,6.5 0 0 1 -6.50037,6.50038 h -4.06642 c 0.0734,0.2071 0.13694,0.38575 0.21135,0.59583 h 5.02709 a 5.047957,4.29 0 0 0 4.12016,-1.81126 5.047957,4.29 0 0 1 0.0791,0.75551 5.047957,4.29 0 0 1 -5.04827,4.29017 h -3.03237 c 0.0881,0.24872 0.15113,0.42715 0.22996,0.64958 h 3.38584 a 3.4853236,2.8314 0 0 0 2.84479,-1.19528 3.4853236,2.8314 0 0 1 0.0548,0.49816 3.4853236,2.8314 0 0 1 -3.48557,2.83187 h -2.04329 c 0.0639,0.18026 0.17667,0.49831 0.23927,0.6749 a 1.7426618,1.4157 0 0 0 0.7462,-0.48628 1.7426618,1.4157 0 0 1 0.0274,0.2496 1.7426618,1.4157 0 0 1 -0.50436,0.9958 c 0.002,0.005 0.005,0.0129 0.006,0.0176 a 7.3716626,7.3716626 0 0 1 -4.79144,1.76992 7.3716626,7.3716626 0 0 1 -7.37164,-7.37164 7.3716626,7.3716626 0 0 1 7.37164,-7.37216 7.3716626,7.3716626 0 0 1 0.19741,0.003 c 5.6e-4,0.002 9.9e-4,0.002 0.002,0.004 h 6.89363 a 6.5,6.5 0 0 0 5.3051,-2.74454 z" /></g></svg>
