<?xml version="1.0" encoding="UTF-8" standalone="no"?>
<!-- Created with Inkscape (http://www.inkscape.org/) -->

<svg
   width="30.000237mm"
   height="29.999718mm"
   viewBox="0 0 30.000237 29.999718"
   version="1.1"
   id="svg5"
   xml:space="preserve"
   xmlns="http://www.w3.org/2000/svg"
   xmlns:svg="http://www.w3.org/2000/svg"><defs
     id="defs2" /><g
     id="layer2"
     transform="translate(-62.71663,-14.71537)"><g
       id="g19238"
       transform="translate(-243.23415,-203.07482)"
       style="opacity:1;fill:#546aae;fill-opacity:1"><path
         id="path4635-5-6"
         style="opacity:1;fill:#546aae;fill-opacity:1;stroke-width:0.283868"
         d="m 320.9509,217.79019 a 15,15 0 0 0 -15.00012,15.00011 15,15 0 0 0 15.00012,14.99961 15,15 0 0 0 15.00012,-14.99961 15,15 0 0 0 -15.00012,-15.00011 z m 0,5.57072 a 9.4288702,9.4288702 0 0 1 9.42888,9.42888 9.4288702,9.4288702 0 0 1 -1.73271,5.43894 c -0.38561,0.84342 -0.38365,1.81578 1.06092,2.66444 -2.32415,0.90381 -5.14966,1.23884 -7.97264,1.28984 a 9.4288702,9.4288702 0 0 1 -0.78445,0.0362 9.4288702,9.4288702 0 0 1 -9.42888,-9.42889 9.4288702,9.4288702 0 0 1 9.42888,-9.42888 z" /><path
         id="path19139"
         style="opacity:1;fill:#546aae;fill-opacity:1;stroke-width:0.23877"
         d="m 325.06491,229.24629 a 2.1143529,2.1143529 0 0 1 0.003,0.11007 2.1143529,2.1143529 0 0 1 -2.1146,2.11408 2.1143529,2.1143529 0 0 1 -0.36691,-0.0331 2.1143529,2.1143529 0 0 0 2.10995,2.00454 2.1143529,2.1143529 0 0 0 2.1146,-2.11409 2.1143529,2.1143529 0 0 0 -1.74563,-2.08153 z" /><path
         id="path19139-9"
         style="opacity:1;fill:#546aae;fill-opacity:1;stroke-width:0.23877"
         d="m 316.80097,229.24633 a 2.1143529,2.1143529 0 0 0 -0.003,0.11007 2.1143529,2.1143529 0 0 0 2.1146,2.11408 2.1143529,2.1143529 0 0 0 0.36691,-0.0331 2.1143529,2.1143529 0 0 1 -2.10995,2.00453 2.1143529,2.1143529 0 0 1 -2.1146,-2.11409 2.1143529,2.1143529 0 0 1 1.74563,-2.08153 z" /></g></g></svg>
