<?xml version="1.0" encoding="UTF-8" standalone="no"?>
<!-- Created with Inkscape (http://www.inkscape.org/) -->

<svg
   width="30.00024mm"
   height="29.999725mm"
   viewBox="0 0 30.00024 29.999725"
   version="1.1"
   id="svg5"
   xml:space="preserve"
   xmlns="http://www.w3.org/2000/svg"
   xmlns:svg="http://www.w3.org/2000/svg"><defs
     id="defs2" /><g
     id="layer2"
     transform="translate(-21.85141,-51.914771)"><path
       id="path4635-5-9-6"
       style="opacity:1;fill:#70cdbf;fill-opacity:1;stroke-width:0.283868"
       d="M 36.85153,51.91477 A 15,15 0 0 0 21.85141,66.91437 15,15 0 0 0 36.85153,81.91449 15,15 0 0 0 51.85165,66.91437 15,15 0 0 0 36.85153,51.91477 Z m -5.93246,4.72426 2.8081,1.6216 2.8081,1.62109 v 3.24218 3.2427 l -2.8081,-1.62109 -2.8081,-1.62109 2.8081,-1.62161 -2.8081,1.62109 v -3.24218 z m 11.86491,0 v 3.24269 3.24218 l -2.80809,-1.62109 2.80809,1.62161 -2.80809,1.62109 -2.8081,1.62109 v -3.2427 -3.24218 l 2.8081,-1.62109 z m -12.18117,7.03316 2.8081,1.62109 2.8081,1.62109 -2.8081,1.6216 -2.8081,1.62109 -2.80809,-1.62109 -2.8081,-1.6216 2.8081,-1.62109 z m 12.49743,0 2.8081,1.62109 2.8081,1.62109 -2.8081,1.6216 -2.8081,1.62109 -2.8081,-1.62109 -2.80758,-1.6216 2.80758,-1.62109 z m -6.56497,3.79046 v 3.24218 3.2427 l -2.8081,1.62109 -2.8081,1.62109 v -3.24218 -3.2427 l 2.8081,-1.62109 z m 0.63252,0 2.8081,1.62109 2.80809,1.62109 v 3.2427 3.24218 l -2.80809,-1.62109 -2.8081,-1.62109 v -3.2427 z" /></g></svg>
