<?xml version="1.0" encoding="UTF-8" standalone="no"?>
<!-- Created with Inkscape (http://www.inkscape.org/) -->

<svg
   width="29.999725mm"
   height="29.999702mm"
   viewBox="0 0 29.999725 29.999702"
   version="1.1"
   id="svg5"
   xml:space="preserve"
   xmlns="http://www.w3.org/2000/svg"
   xmlns:svg="http://www.w3.org/2000/svg"><defs
     id="defs2" /><g
     id="layer2"
     transform="translate(-106.20488,-89.755117)"><path
       id="path4635-5-80-7"
       style="opacity:1;fill:#aa6ac8;fill-opacity:1;stroke-width:0.283868"
       d="M 121.205,89.755113 A 15,15 0 0 0 106.20489,104.75471 15,15 0 0 0 121.205,119.75482 15,15 0 0 0 136.20461,104.75471 15,15 0 0 0 121.205,89.755113 Z m 0,5.86785 a 9.7381802,7.7582178 0 0 1 9.73791,7.758187 9.7381802,7.7582178 0 0 1 -3.06338,5.64255 2.5456657,3.5154424 0 0 1 0.19482,1.34772 2.5456657,3.5154424 0 0 1 -2.5461,3.51555 2.5456657,3.5154424 0 0 1 -2.31303,-2.04846 2.5456657,3.5154424 0 0 1 -2.01022,1.36168 2.5456657,3.5154424 0 0 1 -2.01073,-1.36168 2.5456657,3.5154424 0 0 1 -2.31303,2.04846 2.5456657,3.5154424 0 0 1 -2.54558,-3.51555 2.5456657,3.5154424 0 0 1 0.19585,-1.34669 9.7381802,7.7582178 0 0 1 -3.06493,-5.64358 9.7381802,7.7582178 0 0 1 9.73842,-7.758187 z m 0,2.81379 a 6.2063222,4.9444556 0 0 0 -6.20634,4.944397 6.2063222,4.9444556 0 0 0 6.20634,4.9444 6.2063222,4.9444556 0 0 0 6.20634,-4.9444 6.2063222,4.9444556 0 0 0 -6.20634,-4.944397 z" /></g></svg>
