<?xml version="1.0" encoding="UTF-8" standalone="no"?>
<!-- Created with Inkscape (http://www.inkscape.org/) -->

<svg
   width="30.000229mm"
   height="30.000244mm"
   viewBox="0 0 30.000229 30.000244"
   version="1.1"
   id="svg5"
   xml:space="preserve"
   xmlns="http://www.w3.org/2000/svg"
   xmlns:svg="http://www.w3.org/2000/svg"><defs
     id="defs2" /><g
     id="layer2"
     transform="translate(-147.29073,-132.20456)"><path
       id="path4635-5-68"
       style="opacity:1;fill:#fa707c;fill-opacity:1;stroke-width:0.283868"
       d="m 162.29086,132.20455 a 15,15 0 0 0 -15.00012,15.00012 15,15 0 0 0 15.00012,15.00012 15,15 0 0 0 15.00011,-15.00012 15,15 0 0 0 -15.00011,-15.00012 z m 0.0264,6.34845 c 0.13285,-0.002 0.26553,-2e-5 0.39791,0.004 3.70682,0.11646 7.41353,2.98283 7.96592,6.57376 0.51004,3.31561 -1.93859,7.23811 -5.74177,7.62486 -2.92843,0.2978 -6.09109,-1.87595 -6.27662,-4.79816 -0.0663,-1.04429 0.47063,-2.24167 1.17306,-3.04425 0.70243,-0.80259 1.81292,-1.38308 3.0887,-1.33532 0.80989,0.0303 1.56382,0.33071 2.15852,0.86351 0.59464,0.5328 1.00261,1.44572 0.70074,2.34818 -0.2208,0.66022 -0.58952,0.91644 -1.15291,1.15755 -0.28167,0.12055 -0.67315,0.23147 -1.15341,0.0899 -0.48026,-0.14155 -0.84758,-0.58758 -0.96118,-0.96997 -0.15613,-0.52547 0.17873,-1.06818 0.74827,-1.21233 0.11644,-0.004 0.23297,0.01 0.34468,0.0403 -0.0158,-0.0148 0.005,-0.0208 -0.016,-0.0382 -0.17867,-0.16005 -0.54246,-0.29793 -0.75602,-0.30592 -0.55501,-0.0208 -0.98332,0.19748 -1.33739,0.60203 -0.35408,0.40455 -0.56289,0.99463 -0.52968,1.51774 0.10659,1.67825 1.67417,2.76471 3.47834,2.58123 2.50473,-0.2547 3.608,-2.50903 3.25768,-4.78627 -0.45135,-2.93409 -2.83383,-4.5186 -5.96501,-4.04678 -3.85129,0.58035 -6.00966,3.83699 -5.33146,7.3365 0.80804,4.1694 5.06143,6.25951 9.51673,5.47667 0.35461,-0.0623 0.70523,-0.1438 1.04955,-0.24494 1.45663,-0.31288 1.60727,0.98887 0.53537,1.33738 -0.42561,0.12503 -0.85999,0.22565 -1.29915,0.30283 -5.58719,0.98171 -11.19341,-1.18903 -12.22199,-6.49625 -0.88022,-4.54196 2.03019,-9.71264 7.12928,-10.48101 0.39927,-0.0602 0.79931,-0.0921 1.19786,-0.0971 z" /></g></svg>
