<?xml version="1.0" encoding="UTF-8" standalone="no"?>
<!-- Created with Inkscape (http://www.inkscape.org/) -->

<svg
   width="30.000244mm"
   height="29.999722mm"
   viewBox="0 0 30.000244 29.999722"
   version="1.1"
   id="svg5"
   xml:space="preserve"
   xmlns="http://www.w3.org/2000/svg"
   xmlns:svg="http://www.w3.org/2000/svg"><defs
     id="defs2" /><g
     id="layer2"
     transform="translate(-106.65227,-14.194866)"><g
       id="g21379"
       transform="translate(-248.15629,-6.0919696)"
       style="fill:#4d91d7;fill-opacity:1"><path
         id="path4635-5-9"
         style="opacity:1;fill:#4d91d7;fill-opacity:1;stroke-width:0.283868"
         d="M 369.80868,20.286836 A 15,15 0 0 0 354.80856,35.286954 15,15 0 0 0 369.80868,50.286555 15,15 0 0 0 384.8088,35.286954 15,15 0 0 0 369.80868,20.286836 Z m 0,5.615677 c 0,0 7.32358,7.400677 7.32358,11.445297 0,4.04462 -3.27896,7.323068 -7.32358,7.323067 -4.04462,-5e-6 -7.32358,-3.278451 -7.32358,-7.323067 0,-4.044616 7.32358,-11.445297 7.32358,-11.445297 z" /><path
         id="path4635-5-9-4"
         style="opacity:1;fill:#4d91d7;fill-opacity:1;stroke-width:0.0751507"
         d="m 366.59226,35.772225 a 3.9710786,3.9710786 0 0 0 -1.18856,2.829801 3.9710786,3.9710786 0 0 0 3.97082,3.970817 3.9710786,3.9710786 0 0 0 3.92482,-3.369303 3.9710786,3.9710786 0 0 1 -2.78174,1.141016 3.9710786,3.9710786 0 0 1 -3.97082,-3.971334 3.9710786,3.9710786 0 0 1 0.0455,-0.600997 z" /></g></g></svg>
